<?xml version="1.0" encoding="UTF-8" standalone="no"?>
<!-- Generator: Adobe Illustrator 18.1.1, SVG Export Plug-In . SVG Version: 6.00 Build 0)  -->

<svg
   xmlns:dc="http://purl.org/dc/elements/1.1/"
   xmlns:cc="http://creativecommons.org/ns#"
   xmlns:rdf="http://www.w3.org/1999/02/22-rdf-syntax-ns#"
   xmlns:svg="http://www.w3.org/2000/svg"
   xmlns="http://www.w3.org/2000/svg"
   xmlns:sodipodi="http://sodipodi.sourceforge.net/DTD/sodipodi-0.dtd"
   xmlns:inkscape="http://www.inkscape.org/namespaces/inkscape"
   version="1.1"
   id="Capa_1"
   x="0px"
   y="0px"
   viewBox="0 0 27.269 27.269"
   style="enable-background:new 0 0 27.269 27.269;"
   xml:space="preserve"
   width="512px"
   height="512px"
   inkscape:version="0.91 r13725"
   sodipodi:docname="webshell.svg"><metadata
     id="metadata4496"><rdf:RDF><cc:Work
         rdf:about=""><dc:format>image/svg+xml</dc:format><dc:type
           rdf:resource="http://purl.org/dc/dcmitype/StillImage" /></cc:Work></rdf:RDF></metadata><defs
     id="defs4494" /><sodipodi:namedview
     pagecolor="#ffffff"
     bordercolor="#666666"
     borderopacity="1"
     objecttolerance="10"
     gridtolerance="10"
     guidetolerance="10"
     inkscape:pageopacity="0"
     inkscape:pageshadow="2"
     inkscape:window-width="2495"
     inkscape:window-height="1416"
     id="namedview4492"
     showgrid="false"
     inkscape:zoom="0.4609375"
     inkscape:cx="256"
     inkscape:cy="256"
     inkscape:window-x="65"
     inkscape:window-y="24"
     inkscape:window-maximized="1"
     inkscape:current-layer="g4426" /><g
     id="g4426"><path
       d="m 23.639064,3.2190127 -20.0065598,0 c -0.9226949,0 -1.6682119,0.7735971 -1.6682119,1.7343549 l 0,17.3622644 c 0,0.957193 0.745517,1.734355 1.6682119,1.734355 l 20.0065598,0 c 0.916703,0 1.665644,-0.777162 1.665644,-1.734355 l 0,-17.3622644 c 0,-0.9607578 -0.748085,-1.7343549 -1.665644,-1.7343549 z M 9.9373008,4.5228982 c 0.4587792,0 0.8311102,0.3841248 0.8311102,0.8671774 0,0.4785964 -0.372331,0.8671775 -0.8311102,0.8671775 -0.4604915,0 -0.8371017,-0.3885811 -0.8371017,-0.8671775 0,-0.4830526 0.3766102,-0.8671774 0.8371017,-0.8671774 z m -2.5523898,0 c 0.4579237,0 0.832822,0.3841248 0.832822,0.8671774 0,0.4785964 -0.3748983,0.8671775 -0.832822,0.8671775 -0.4630593,0 -0.8362458,-0.3885811 -0.8362458,-0.8671775 0,-0.4830526 0.3731865,-0.8671774 0.8362458,-0.8671774 z m -2.5036017,0 c 0.4613474,0 0.833678,0.3841248 0.833678,0.8671774 0,0.4785964 -0.3723306,0.8671775 -0.833678,0.8671775 -0.4587797,0 -0.8319661,-0.3885811 -0.8319661,-0.8671775 0,-0.4830526 0.3731864,-0.8671774 0.8319661,-0.8671774 z m 18.7577547,17.7936258 -20.0065598,0 0,-14.7384519 20.0065598,0 0,14.7384519 z"
       id="path4428"
       style="fill:#6EC6F0"
       inkscape:connector-curvature="0" /><rect
       x="3.6325042"
       y="7.5780725"
       width="20.006559"
       height="14.738452"
       id="rect4430"
       style="fill:#000000" /></g><g
     id="g4462" /><g
     id="g4464" /><g
     id="g4466" /><g
     id="g4468" /><g
     id="g4470" /><g
     id="g4472" /><g
     id="g4474" /><g
     id="g4476" /><g
     id="g4478" /><g
     id="g4480" /><g
     id="g4482" /><g
     id="g4484" /><g
     id="g4486" /><g
     id="g4488" /><g
     id="g4490" /></svg>
